<?xml version="1.0" encoding="UTF-8" standalone="no"?>
<!-- Created with Inkscape (http://www.inkscape.org/) -->

<svg
   width="1200mm"
   height="400mm"
   viewBox="0 0 1200 400"
   version="1.1"
   id="svg1"
   inkscape:version="1.3.2 (091e20e, 2023-11-25, custom)"
   sodipodi:docname="banner_fontless.svg"
   xmlns:inkscape="http://www.inkscape.org/namespaces/inkscape"
   xmlns:sodipodi="http://sodipodi.sourceforge.net/DTD/sodipodi-0.dtd"
   xmlns="http://www.w3.org/2000/svg"
   xmlns:svg="http://www.w3.org/2000/svg">
  <sodipodi:namedview
     id="namedview1"
     pagecolor="#ffffff"
     bordercolor="#000000"
     borderopacity="0.25"
     inkscape:showpageshadow="2"
     inkscape:pageopacity="0.0"
     inkscape:pagecheckerboard="0"
     inkscape:deskcolor="#ffffff"
     inkscape:document-units="mm"
     inkscape:zoom="0.57858903"
     inkscape:cx="2171.6623"
     inkscape:cy="809.72845"
     inkscape:window-width="3840"
     inkscape:window-height="2054"
     inkscape:window-x="-11"
     inkscape:window-y="-11"
     inkscape:window-maximized="1"
     inkscape:current-layer="layer1" />
  <defs
     id="defs1">
    <rect
       x="2096.4794"
       y="814.0493"
       width="127.89734"
       height="79.503754"
       id="rect2" />
  </defs>
  <g
     inkscape:label="Calque 1"
     inkscape:groupmode="layer"
     id="layer1">
    <g
       id="g5"
       transform="translate(174.22772,-4.1156155)">
      <path
         d="m 400.82533,171.781 c -7.58892,-18.2824 -11.72834,-31.04559 -12.07329,-38.28956 -0.34495,-9.31368 2.41466,-16.55765 7.93388,-21.38696 5.17426,-4.48437 11.03843,-6.55407 17.5925,-5.86417 7.24397,0.34495 12.76318,3.44951 16.21269,8.96873 3.44951,5.86416 4.48437,13.45309 2.75961,22.76676 -2.41466,12.76319 -13.10814,24.14657 -32.42539,33.8052 z m -81.75339,84.51299 c 0.34495,7.93387 2.41466,14.48794 6.55407,19.66221 11.72834,14.48794 27.25113,20.69706 46.22344,18.9723 18.9723,-1.72475 37.9446,-11.03843 56.57196,-27.59608 20.35211,21.73191 39.32441,30.35569 56.22701,26.56123 6.55407,-1.37981 12.41823,-3.79446 17.5925,-7.58892 5.17426,-3.44951 8.96872,-7.24397 11.38338,-11.38339 2.41466,-4.13941 4.48436,-7.58892 5.86417,-10.69348 1.03485,-2.7596 1.72475,-5.17426 2.0697,-6.89902 l -7.24397,-4.82931 c -3.10456,8.96873 -7.24397,15.17784 -12.41823,18.62735 -5.17427,3.44951 -13.10814,3.44951 -23.80162,-0.34495 -8.62377,-3.10456 -18.62735,-11.03843 -30.35569,-23.80162 7.58892,-9.31367 13.79804,-17.5925 18.97231,-25.18142 4.82931,-7.24397 8.62377,-13.79804 11.72833,-19.31725 3.10456,-5.17427 5.17427,-8.96873 6.89902,-11.38339 4.48436,-6.55406 8.27882,-11.03843 11.38338,-13.45308 3.10456,-2.06971 7.93388,-3.44951 14.8329,-3.79447 v -4.82931 c -3.79447,0 -23.11172,0 -57.95177,-0.34495 v 5.17426 c 5.51922,1.03486 8.96873,3.79447 10.69348,8.62378 1.72476,5.17426 2.06971,10.00358 1.03485,14.48794 -3.10456,12.76319 -11.03843,26.90618 -24.49152,42.42897 -13.45309,-16.55765 -23.80162,-32.42539 -31.04559,-47.60323 -0.34495,-1.37981 -1.03485,-2.75961 -1.72475,-3.79446 l -3.44951,-6.89902 c 4.48436,-2.06971 8.96872,-4.48437 13.45309,-6.89902 4.13941,-2.41466 8.62377,-5.51922 13.79804,-9.31368 5.17426,-3.79446 9.31367,-7.93387 12.41823,-12.76319 3.10456,-4.82931 5.17427,-9.65863 5.51922,-14.83289 1.03485,-7.58892 0.34495,-14.14299 -1.37981,-19.66221 -1.72475,-5.17426 -4.48436,-9.31367 -7.58892,-11.72833 -3.44951,-2.41466 -7.24397,-4.48436 -11.38338,-6.209118 -4.48436,-1.379804 -8.62377,-2.069706 -12.76319,-1.724755 -4.13941,0.344951 -7.93387,0.344951 -11.38338,0.689902 -12.76319,1.724751 -23.11172,6.899021 -30.35569,15.177841 -7.24397,8.27883 -11.03843,18.2824 -10.69348,30.01074 0.34495,11.03843 4.13942,24.49152 10.69348,40.70422 -12.76318,5.86416 -23.80161,13.10813 -32.42539,21.73191 -8.96872,8.62377 -15.17784,17.24755 -18.62735,25.52637 -3.79446,8.62378 -5.17427,16.55765 -4.82932,24.49152 z M 348.04783,242.151 c 0.34495,-8.27882 3.10456,-16.9026 8.62377,-25.87132 5.51922,-8.62378 13.10814,-15.86775 22.76677,-21.73192 1.3798,3.10456 2.7596,5.86417 4.48436,8.62378 l 0.6899,1.3798 c 11.03843,21.04201 23.11172,38.97946 36.21986,54.50226 -16.55765,13.45309 -30.35569,19.66221 -41.04917,17.93745 -10.69348,-1.72475 -18.62736,-5.86417 -24.14657,-12.41824 -5.51922,-6.55406 -7.93387,-14.14299 -7.58892,-22.42181 z"
         id="text5"
         style="font-size:344.951px;font-family:'Dragonlord PERSONAL USE ONLY';-inkscape-font-specification:'Dragonlord PERSONAL USE ONLY';fill:#4d4d4d;fill-opacity:0.988235;stroke-width:9.23973;stroke-opacity:0.988235"
         aria-label="&amp;" />
      <path
         d="m 48.145319,220.43843 c 0,-34.33449 -0.153279,-42.305 -0.153279,-49.50911 0,-7.81723 0.919674,-10.88281 1.992627,-11.49593 0.459837,-0.30656 1.072953,-0.45984 1.839349,-0.30656 3.218859,0.45984 6.13116,3.83198 8.583624,10.2697 2.299185,6.59099 3.525417,13.94838 3.372138,22.22545 -0.153279,9.35002 -1.226232,17.16725 -3.372138,23.45169 -2.299185,6.28444 -4.904928,9.35002 -7.970508,9.5033 -2.605744,0.15328 -4.291813,-1.22623 -4.291813,-4.13854 z M 31.744466,155.75469 c 1.53279,0.15328 2.759022,0.61312 3.678696,1.37951 0.919674,0.91968 1.53279,2.14591 1.53279,3.52542 l 0.153279,61.92472 c 0,1.83935 -0.306558,3.06558 -0.919674,3.83198 -0.766395,0.76639 -1.839348,1.07295 -3.218859,1.22623 v 2.60574 c 16.247574,0 17.473806,0 19.159876,-0.15328 4.59837,0 8.736903,-1.99263 12.26232,-5.97788 3.525417,-3.83197 6.284439,-8.7369 7.970508,-14.5615 1.68607,-5.82461 2.452465,-11.95577 2.452465,-18.54676 0,-9.65658 -2.145907,-18.24021 -6.590998,-25.75088 -4.445091,-7.51067 -9.656577,-11.34264 -15.634458,-11.34264 H 31.744466 Z m 75.719864,-2.1459 v 1.99262 c 1.68607,0.15328 2.9123,0.45984 3.6787,1.07296 0.76639,0.61311 1.07295,1.68607 1.07295,3.37214 v 0.76639 c 0.15328,13.94839 0.15328,24.21808 0.15328,30.50252 -0.15328,3.6787 -0.30656,7.3574 -0.76639,11.03609 -0.45984,3.6787 -1.07296,7.20412 -1.83935,10.57625 -0.91968,3.37214 -2.14591,6.13116 -3.6787,8.12379 -1.53279,2.14591 -3.21886,3.21886 -5.21148,3.06558 -1.992631,-0.15328 -3.6787,-1.22623 -5.21149,-3.21886 -1.53279,-1.99263 -2.605743,-4.75165 -3.372138,-8.12379 -0.766395,-3.21885 -1.379511,-6.74427 -1.686069,-10.26969 -0.459837,-3.52542 -0.613116,-7.05083 -0.613116,-10.57625 0,-6.28444 0,-16.55413 0.153279,-30.50252 v -0.7664 c 0,-1.68607 0.306558,-3.06558 1.072953,-3.83197 0.766395,-0.7664 1.992627,-1.07296 3.678696,-1.22624 v -1.99262 H 74.662626 v 1.99262 c 1.686069,0.15328 2.912301,0.45984 3.678696,1.07296 0.766395,0.61311 1.072953,1.83935 1.072953,3.52541 v 0.45984 c -0.153279,10.11642 -0.153279,20.38611 0,30.80908 0.153279,12.10904 1.992628,21.61234 5.824603,28.81646 3.831975,7.20411 9.043461,10.72953 15.634462,10.88281 7.20411,0 12.56887,-3.52542 16.09429,-10.57626 3.52542,-6.89755 5.21149,-16.70741 5.36477,-29.12301 0.15328,-11.18937 0.15328,-21.9189 0.30656,-32.49515 0.45983,-2.1459 1.99262,-3.21886 4.59837,-3.37214 v -1.99262 z m 44.45098,0 v 1.99262 c 1.37952,0.15328 2.29919,0.30656 2.91231,0.61312 0.61311,0.30656 0.91967,0.91967 1.07295,1.99263 v 7.51067 c 0.15328,0.45984 0.15328,1.37951 0.15328,2.75902 v 3.98526 c -2.45247,-4.90493 -5.05821,-8.73691 -7.81723,-11.64921 l -0.30656,-0.30656 c -1.22623,-1.22623 -1.83935,-2.29918 -1.83935,-3.21886 0,-0.91967 0.7664,-1.53279 2.45247,-1.68607 v -1.99262 h -19.31316 v 1.99262 c 2.29919,0.15328 3.6787,0.7664 4.44509,1.83935 0.15328,1.68607 0.15328,2.9123 0.15328,3.6787 v 30.96236 l 0.15328,26.21071 v 4.13853 c -0.15328,1.68607 -0.61312,2.9123 -1.53279,3.98526 -0.91967,1.07295 -2.14591,1.68606 -3.52542,1.83934 v 1.99263 h 17.93365 v -2.14591 c -1.53279,0 -2.75902,-0.61311 -3.52542,-1.68606 -0.91967,-1.07296 -1.37951,-2.29919 -1.37951,-3.98526 v -4.13853 c 0,-7.97051 0,-16.70741 -0.15328,-26.36399 v -20.38611 c 8.27707,9.96314 13.02872,22.07218 14.25495,36.02057 0,0.61311 0,4.13853 0.15328,10.72953 v 5.8246 c -0.30656,2.60574 -1.99263,3.98525 -4.90493,4.13853 v 1.99263 h 18.39348 l -0.15328,-2.14591 c -3.06558,0 -4.90493,-1.53279 -5.36477,-4.44509 v -5.36476 c -0.15327,-7.97051 -0.15327,-16.70741 -0.15327,-26.36399 0,-9.5033 0,-18.2402 -0.15328,-26.21071 v -7.51067 c 0.15328,-0.7664 0.30655,-1.37951 0.76639,-1.83935 0.30656,-0.30656 0.61312,-0.45984 1.07296,-0.61312 0.30655,0 1.07295,0 2.1459,-0.15328 v -1.99262 z m 33.26141,65.75669 c -2.60574,-4.90493 -4.13853,-11.03609 -4.59837,-18.2402 -0.61312,-7.20411 -0.61312,-13.33527 0.15328,-18.39348 0.61312,-5.05821 1.37951,-8.7369 2.29918,-11.18937 1.83935,-5.21148 3.98526,-8.58362 6.28444,-10.26969 2.29919,-1.53279 4.29182,-1.07296 6.13116,1.22623 1.37952,1.68607 2.75903,4.44509 4.13854,8.43035 l 1.99262,-0.30656 -1.53279,-9.19674 c -0.45983,-2.75903 -0.45983,-5.51805 -0.30655,-8.12379 l -1.83935,0.15328 c -0.15328,0.76639 -0.45984,1.22623 -0.7664,1.53279 -0.45983,0.30656 -0.76639,0.45984 -1.22623,0.30656 -0.45984,0 -1.22623,-0.15328 -2.1459,-0.30656 -0.91968,-0.15328 -1.68607,-0.30656 -2.45247,-0.30656 -3.83197,-0.15328 -7.20411,1.07295 -10.42297,3.98525 -3.21886,2.91231 -5.8246,6.43772 -7.66395,10.42298 -2.45247,5.36476 -3.83198,12.10904 -4.29181,20.53938 -0.45984,8.43035 0.61311,16.0943 3.06558,22.99186 4.44509,11.80248 11.6492,17.62708 21.61234,17.62708 h 10.88281 v -25.90415 c -0.15328,-6.43772 -0.15328,-12.4156 -0.15328,-17.78037 v -2.29918 c 0,-2.75902 1.83934,-4.13853 5.36476,-4.13853 l 0.45984,-2.14591 h -21.61234 v 2.14591 c 1.68607,0 2.9123,0.30655 3.6787,0.76639 0.76639,0.45984 1.22623,1.53279 1.22623,2.9123 v 2.9123 c 0,5.36477 0,11.18937 0.15328,17.62709 v 19.15987 c -1.53279,1.07296 -3.06558,1.07296 -4.59837,0.15328 -1.68607,-0.91967 -2.91231,-2.29918 -3.83198,-4.29181 z m 22.22536,-65.75669 v 1.99262 c 1.53279,0.15328 2.60574,0.30656 3.21886,0.7664 0.45983,0.45984 0.76639,1.22623 0.91967,2.60574 v 6.591 c 0,7.97051 0,16.70741 0.15328,26.36399 v 32.95499 c 0,1.37951 -0.30656,2.1459 -0.76639,2.60574 -0.61312,0.45984 -1.68607,0.61311 -3.37214,0.76639 v 1.99263 h 34.18122 l 3.21885,-26.36399 -2.1459,-0.30656 c -1.37951,4.13854 -2.9123,7.81723 -4.44509,10.88281 -3.6787,7.51067 -7.20412,11.03609 -10.57625,10.57625 -1.99263,-0.30655 -3.21886,-1.68606 -3.52542,-4.29181 v -28.81645 c -0.15328,-7.35739 -0.15328,-11.95576 -0.15328,-13.64183 2.9123,-0.15328 5.36477,0.76639 7.66395,2.45246 2.9123,2.14591 4.59837,4.90493 5.36477,8.43035 l 2.29918,0.15328 c -1.99263,-6.74428 -3.21886,-13.64184 -3.37214,-20.84595 h -1.53279 v 1.22623 c 0,0.91968 -0.45983,1.83935 -1.37951,2.60575 -0.91967,0.76639 -2.29918,1.22623 -3.98525,1.22623 -1.68607,0 -3.37214,-0.15328 -5.05821,-0.45984 v -7.81723 c 0.15328,-2.75902 1.53279,-4.59837 3.83198,-5.36476 2.29918,-0.7664 5.0582,0 7.9705,2.1459 1.37951,1.22623 2.9123,3.52542 4.44509,6.89756 l 1.68607,-0.15328 -1.37951,-15.17462 z m 62.84445,-1.68607 c -6.28443,0 -11.80248,3.83197 -16.24757,11.49592 -4.44509,7.81723 -6.74428,17.16725 -6.74428,28.05006 0,10.88281 2.29919,20.23283 6.74428,28.05006 4.44509,7.81723 9.96314,11.64921 16.24757,11.64921 6.28444,0 11.80249,-3.83198 16.24758,-11.64921 4.44509,-7.81723 6.591,-17.16725 6.591,-28.05006 0,-10.88281 -2.14591,-20.23283 -6.591,-28.05006 -4.44509,-7.66395 -9.96314,-11.49592 -16.24758,-11.49592 z m -11.6492,40.00582 c 0,-3.37214 0.15328,-6.89756 0.61312,-10.42297 0.45983,-3.52542 1.07295,-6.89756 1.99262,-10.42298 0.7664,-3.37213 1.99263,-6.13116 3.6787,-8.43034 1.53279,-2.29919 3.37214,-3.37214 5.36476,-3.52542 3.37214,0.15328 6.28444,3.83198 8.73691,11.03609 2.29918,7.20411 3.52542,14.25495 3.37214,21.1525 0,3.6787 -0.15328,7.3574 -0.61312,11.03609 -0.45984,3.6787 -1.22623,7.20412 -2.14591,10.57625 -0.91967,3.37214 -2.1459,6.13116 -3.83197,8.12379 -1.68607,2.14591 -3.52542,3.21886 -5.51805,3.06558 -2.1459,-0.15328 -3.98525,-1.22623 -5.51804,-3.21886 -1.68607,-1.99263 -2.9123,-4.75165 -3.6787,-8.12379 -0.91967,-3.21885 -1.53279,-6.74427 -1.99262,-10.26969 -0.45984,-3.52542 -0.61312,-7.05083 -0.45984,-10.57625 z m 59.16569,-38.31975 v 1.99262 c 1.37951,0.15328 2.29918,0.30656 2.9123,0.61312 0.61311,0.30656 0.91967,0.91967 1.07295,1.99263 v 7.51067 c 0.15328,0.45984 0.15328,1.37951 0.15328,2.75902 v 3.98526 c -2.45246,-4.90493 -5.05821,-8.73691 -7.81723,-11.64921 l -0.30656,-0.30656 c -1.22623,-1.22623 -1.83935,-2.29918 -1.83935,-3.21886 0,-0.91967 0.7664,-1.53279 2.45247,-1.68607 v -1.99262 h -19.31316 v 1.99262 c 2.29919,0.15328 3.6787,0.7664 4.44509,1.83935 0.15328,1.68607 0.15328,2.9123 0.15328,3.6787 v 30.96236 l 0.15328,26.21071 v 4.13853 c -0.15328,1.68607 -0.61311,2.9123 -1.53279,3.98526 -0.91967,1.07295 -2.1459,1.68606 -3.52541,1.83934 v 1.99263 h 17.93364 v -2.14591 c -1.53279,0 -2.75902,-0.61311 -3.52542,-1.68606 -0.91967,-1.07296 -1.37951,-2.29919 -1.37951,-3.98526 v -4.13853 c 0,-7.97051 0,-16.70741 -0.15328,-26.36399 v -20.38611 c 8.27707,9.96314 13.02872,22.07218 14.25495,36.02057 0,0.61311 0,4.13853 0.15328,10.72953 v 5.8246 c -0.30656,2.60574 -1.99263,3.98525 -4.90493,4.13853 v 1.99263 h 18.39348 l -0.15328,-2.14591 c -3.06558,0 -4.90493,-1.53279 -5.36476,-4.44509 v -5.36476 c -0.15328,-7.97051 -0.15328,-16.70741 -0.15328,-26.36399 0,-9.5033 0,-18.2402 -0.15328,-26.21071 v -7.51067 c 0.15328,-0.7664 0.30656,-1.37951 0.76639,-1.83935 0.30656,-0.30656 0.61312,-0.45984 1.07296,-0.61312 0.30656,0 1.07295,0 2.1459,-0.15328 v -1.99262 z m 53.34106,15.3279 -5.21149,-22.37874 -1.83934,0.45984 c 0,0.7664 0.15327,1.53279 0.30655,1.99263 0.15328,0.61311 0,1.07295 -0.45983,1.37951 -0.45984,0.30656 -0.91968,0.45984 -1.22624,0.61311 -0.45983,0.15328 -1.07295,0.15328 -1.99262,0 -0.91968,0 -1.68607,0 -2.45247,-0.15327 -0.76639,0 -1.83934,0 -3.06558,-0.15328 h -3.67869 c -4.44509,0 -8.12379,1.68607 -11.03609,4.90492 -2.9123,3.21886 -4.44509,6.89756 -4.44509,11.03609 0,3.52542 0.76639,6.89756 2.29918,10.11642 1.53279,3.21886 3.37214,6.13116 5.67133,8.7369 l 6.43771,7.81723 c 2.14591,2.60574 3.98526,5.8246 5.36477,9.35002 1.37951,3.52542 2.14591,7.35739 1.99263,11.49593 -0.15328,4.13853 -1.22624,7.81722 -3.52542,11.03608 -2.29919,3.21886 -5.05821,5.82461 -8.27707,7.51068 -3.37214,1.68606 -7.20411,2.45246 -11.49592,2.29918 -4.29182,-0.15328 -8.43035,-1.37951 -12.26232,-3.83197 -3.06558,-1.83935 -5.36477,-4.29182 -7.05084,-7.3574 -1.68607,-2.9123 -2.60574,-5.67132 -2.75902,-8.27706 -0.15328,-2.60575 0,-5.36477 0.45984,-8.27707 0.45983,-2.9123 0.76639,-4.75165 1.22623,-5.8246 0.30656,-1.07296 0.61312,-1.83935 0.76639,-2.29919 -3.67869,2.60575 -5.97788,6.13116 -7.05083,10.88281 -1.07295,4.75165 -1.07295,9.5033 0.30656,14.25495 1.22623,4.75165 3.83197,9.04346 7.66395,13.18199 3.83197,4.13854 8.43034,6.74428 13.79511,8.12379 2.29918,0.45984 4.75165,0.7664 7.66395,0.91968 2.75902,0.15327 5.97788,-0.30656 9.80986,-1.22624 3.83197,-0.76639 7.20411,-2.1459 10.42297,-4.13853 3.21886,-1.83935 6.13116,-4.75165 8.7369,-8.89018 2.60574,-3.98526 4.29181,-8.89018 5.05821,-14.56151 1.99263,-13.02871 -3.6787,-27.13038 -16.86069,-42.45828 -1.99263,-2.29919 -3.52542,-4.59837 -4.29181,-6.89756 -0.91968,-2.29918 -1.22624,-4.13853 -0.91968,-5.67132 0.15328,-1.37951 0.7664,-2.75902 1.68607,-3.83198 0.7664,-1.07295 1.83935,-1.99262 3.06558,-2.45246 1.07295,-0.45984 2.29919,-0.45984 3.37214,-0.30656 1.37951,0.30656 2.60574,0.91968 3.98525,1.99263 1.37951,1.07295 2.45247,2.1459 3.21886,3.21886 0.7664,1.22623 1.53279,2.60574 2.29919,3.98525 0.76639,1.37951 1.22623,2.45247 1.37951,2.9123 l 0.45984,1.22624 z"
         id="text1"
         style="font-size:153.279px;font-family:'Dragonlord PERSONAL USE ONLY';-inkscape-font-specification:'Dragonlord PERSONAL USE ONLY';fill-opacity:0.988235;stroke-width:19.1599;stroke-opacity:0.988235"
         aria-label="Dungeons" />
      <path
         d="m 485.33363,214.78426 c 0,-34.3345 -0.15328,-42.30501 -0.15328,-49.50912 0,-7.81723 0.91968,-10.88281 1.99263,-11.49593 0.45984,-0.30655 1.07295,-0.45983 1.83935,-0.30655 3.21886,0.45983 6.13116,3.83197 8.58362,10.26969 2.29919,6.591 3.52542,13.94839 3.37214,22.22546 -0.15328,9.35002 -1.22623,17.16725 -3.37214,23.45168 -2.29918,6.28444 -4.90493,9.35002 -7.97051,9.5033 -2.60574,0.15328 -4.29181,-1.22623 -4.29181,-4.13853 z m -16.40085,-64.68374 c 1.53279,0.15328 2.75902,0.61311 3.67869,1.37951 0.91968,0.91967 1.53279,2.14591 1.53279,3.52542 l 0.15328,61.92472 c 0,1.83934 -0.30655,3.06558 -0.91967,3.83197 -0.7664,0.7664 -1.83935,1.07295 -3.21886,1.22623 v 2.60575 c 16.24757,0 17.47381,0 19.15988,-0.15328 4.59837,0 8.7369,-1.99263 12.26232,-5.97788 3.52541,-3.83198 6.28444,-8.73691 7.9705,-14.56151 1.68607,-5.8246 2.45247,-11.95576 2.45247,-18.54676 0,-9.65658 -2.14591,-18.2402 -6.591,-25.75087 -4.44509,-7.51067 -9.65658,-11.34265 -15.63446,-11.34265 h -20.84594 z m 66.06321,15.02134 v -9.19674 c 1.22623,-1.53279 2.29918,-2.29918 3.37214,-2.29918 3.67869,0 4.90492,2.1459 3.52541,6.43771 -0.91967,2.75903 -3.21886,4.4451 -6.89755,5.05821 z m -16.70741,-15.17462 c 1.53279,0.15328 2.60574,0.30656 3.21885,0.76639 0.45984,0.45984 0.91968,1.22624 0.91968,2.60575 v 6.591 c 0,7.9705 0.15328,16.70741 0.15328,26.36398 v 32.95499 c 0,1.37951 -0.30656,2.14591 -0.7664,2.60574 -0.61311,0.45984 -1.68607,0.61312 -3.37214,0.7664 v 1.99263 h 21.15251 v -1.99263 c -1.68607,-0.15328 -2.9123,-0.30656 -3.37214,-0.7664 -0.61312,-0.30655 -1.07295,-1.07295 -1.07295,-2.29918 v -33.26155 l -0.15328,-8.12378 v -7.51067 c 0.45983,0.15327 0.76639,0.45983 1.07295,0.61311 0.30656,0.30656 0.61312,0.61312 0.91967,0.7664 0.15328,0.30655 0.45984,0.61311 0.7664,1.07295 0.15328,0.45984 0.45984,0.91967 0.61312,1.22623 0.15327,0.30656 0.45983,0.7664 0.61311,1.37951 0.15328,0.7664 0.45984,1.22624 0.61312,1.53279 l 0.45983,1.83935 c 0.15328,0.91968 0.30656,1.53279 0.45984,1.99263 l 0.61312,2.1459 c 0.15328,1.07296 0.45983,1.99263 0.61311,2.45247 7.97051,31.42219 20.38611,51.8083 37.40008,61.3116 3.98526,2.29919 7.97051,3.83198 11.80248,4.44509 3.83198,0.7664 6.28444,0.91968 7.51068,0.61312 1.07295,-0.15328 1.99262,-0.45984 2.75902,-0.61312 -7.35739,-0.91967 -13.94839,-3.67869 -19.77299,-8.27706 -17.01397,-13.48856 -27.28367,-35.56073 -30.80908,-66.36981 -0.45984,-4.13854 -1.99263,-7.20412 -4.59837,-9.5033 l 2.1459,-1.07296 c 1.37951,-0.61311 2.75902,-1.83934 4.13854,-3.67869 1.22623,-1.83935 1.68606,-3.83198 1.53279,-6.13116 -0.30656,-3.52542 -1.53279,-5.97788 -3.6787,-7.05084 -2.14591,-1.07295 -5.8246,-1.37951 -10.88281,-1.37951 h -20.99922 z m 58.55262,10.72953 h 0.45984 v 0.45984 l 0.15328,0.15328 v 0.61311 l 0.15328,0.15328 v 0.30656 l 2.60574,12.4156 c -2.29919,-2.29919 -4.13853,-3.6787 -5.51804,-4.29181 0,-0.15328 0,-0.15328 -0.15328,-0.15328 l 1.68607,-7.05084 c 0.15327,-0.91967 0.45983,-1.83934 0.61311,-2.60574 z m -28.66317,64.07063 h 19.61971 v -2.14591 c -3.21886,0 -4.75165,-1.53279 -4.29181,-4.75165 0.15328,-0.45984 0.30656,-1.07295 0.45983,-1.99263 l 0.15328,-0.15328 v -0.45983 l 6.89756,-29.42957 2.14591,-9.35002 c 3.21885,2.75902 6.59099,6.89755 9.96313,12.26232 l 5.67132,28.05006 c 0.45984,1.83934 0.15328,3.21886 -0.91967,4.13853 -1.07295,1.07295 -2.60574,1.53279 -4.44509,1.68607 v 1.99263 h 22.37873 v -2.29919 c -2.9123,0.15328 -4.59837,-1.07295 -5.21148,-3.37214 l -12.10904,-58.85914 -0.7664,-3.21885 v -0.45984 c -0.76639,-4.13854 0.15328,-6.28444 2.9123,-6.43772 v -1.83935 l -24.0648,-0.15328 v 1.99263 c 3.52542,0.15328 4.75165,1.99263 3.98525,5.51804 v 0.30656 l -14.10167,60.54521 v 0.45984 l -0.15328,0.15328 v 0.15327 c -1.07295,3.52542 -3.83197,5.36477 -8.12378,5.51805 z m 66.2165,-11.03609 c -2.60574,-4.90493 -4.13853,-11.03609 -4.59837,-18.24021 -0.61312,-7.20411 -0.61312,-13.33527 0.15328,-18.39348 0.61311,-5.0582 1.37951,-8.7369 2.29918,-11.18936 1.83935,-5.21149 3.98526,-8.58363 6.28444,-10.2697 2.29919,-1.53279 4.29181,-1.07295 6.13116,1.22624 1.37951,1.68606 2.75902,4.44509 4.13854,8.43034 l 1.99262,-0.30656 -1.53279,-9.19674 c -0.45983,-2.75902 -0.45983,-5.51804 -0.30656,-8.12379 l -1.83934,0.15328 c -0.15328,0.7664 -0.45984,1.22624 -0.7664,1.53279 -0.45984,0.30656 -0.76639,0.45984 -1.22623,0.30656 -0.45984,0 -1.22623,-0.15328 -2.14591,-0.30656 -0.91967,-0.15328 -1.68607,-0.30655 -2.45246,-0.30655 -3.83198,-0.15328 -7.20411,1.07295 -10.42297,3.98525 -3.21886,2.9123 -5.82461,6.43772 -7.66395,10.42297 -2.45247,5.36477 -3.83198,12.10904 -4.29182,20.53939 -0.45983,8.43034 0.61312,16.0943 3.06558,22.99185 4.4451,11.80248 11.64921,17.62709 21.61234,17.62709 h 10.88281 v -25.90416 c -0.15328,-6.43771 -0.15328,-12.4156 -0.15328,-17.78036 v -2.29919 c 0,-2.75902 1.83935,-4.13853 5.36477,-4.13853 l 0.45984,-2.14591 h -21.61234 v 2.14591 c 1.68607,0 2.9123,0.30656 3.67869,0.7664 0.7664,0.45983 1.22623,1.53279 1.22623,2.9123 v 2.9123 c 0,5.36476 0,11.18937 0.15328,17.62708 v 19.15988 c -1.53279,1.07295 -3.06558,1.07295 -4.59837,0.15328 -1.68607,-0.91968 -2.9123,-2.29919 -3.83197,-4.29181 z m 48.12938,-67.44277 c -6.28444,0 -11.80248,3.83198 -16.24757,11.49593 -4.44509,7.81723 -6.74428,17.16725 -6.74428,28.05006 0,10.88281 2.29919,20.23283 6.74428,28.05006 4.44509,7.81723 9.96313,11.6492 16.24757,11.6492 6.28444,0 11.80249,-3.83197 16.24758,-11.6492 4.44509,-7.81723 6.59099,-17.16725 6.59099,-28.05006 0,-10.88281 -2.1459,-20.23283 -6.59099,-28.05006 -4.44509,-7.66395 -9.96314,-11.49593 -16.24758,-11.49593 z m -11.6492,40.00582 c 0,-3.37213 0.15328,-6.89755 0.61311,-10.42297 0.45984,-3.52542 1.07296,-6.89755 1.99263,-10.42297 0.7664,-3.37214 1.99263,-6.13116 3.6787,-8.43035 1.53279,-2.29918 3.37214,-3.37213 5.36476,-3.52541 3.37214,0.15328 6.28444,3.83197 8.73691,11.03609 2.29918,7.20411 3.52541,14.25494 3.37213,21.1525 0,3.67869 -0.15327,7.35739 -0.61311,11.03609 -0.45984,3.67869 -1.22623,7.20411 -2.14591,10.57625 -0.91967,3.37214 -2.1459,6.13116 -3.83197,8.12379 -1.68607,2.1459 -3.52542,3.21885 -5.51805,3.06558 -2.1459,-0.15328 -3.98525,-1.22624 -5.51804,-3.21886 -1.68607,-1.99263 -2.9123,-4.75165 -3.6787,-8.12379 -0.91967,-3.21886 -1.53279,-6.74428 -1.99262,-10.26969 -0.45984,-3.52542 -0.61312,-7.05084 -0.45984,-10.57626 z m 59.16568,-38.31975 v 1.99263 c 1.37952,0.15328 2.29919,0.30656 2.91231,0.61312 0.61311,0.30655 0.91967,0.91967 1.07295,1.99262 v 7.51067 c 0.15328,0.45984 0.15328,1.37952 0.15328,2.75903 v 3.98525 c -2.45247,-4.90493 -5.05821,-8.7369 -7.81723,-11.6492 l -0.30656,-0.30656 c -1.22623,-1.22623 -1.83935,-2.29919 -1.83935,-3.21886 0,-0.91968 0.7664,-1.53279 2.45247,-1.68607 v -1.99263 H 687.3551 v 1.99263 c 2.29919,0.15328 3.6787,0.76639 4.44509,1.83935 0.15328,1.68607 0.15328,2.9123 0.15328,3.67869 v 30.96236 l 0.15328,26.21071 v 4.13854 c -0.15328,1.68607 -0.61312,2.9123 -1.53279,3.98525 -0.91967,1.07295 -2.14591,1.68607 -3.52542,1.83935 v 1.99263 h 17.93365 v -2.14591 c -1.53279,0 -2.75902,-0.61312 -3.52542,-1.68607 -0.91967,-1.07295 -1.37951,-2.29918 -1.37951,-3.98525 v -4.13854 c 0,-7.9705 0,-16.70741 -0.15328,-26.36399 v -20.3861 c 8.27707,9.96313 13.02872,22.07217 14.25495,36.02056 0,0.61312 0,4.13854 0.15328,10.72953 v 5.82461 c -0.30656,2.60574 -1.99263,3.98525 -4.90493,4.13853 v 1.99263 h 18.39348 l -0.15328,-2.14591 c -3.06558,0 -4.90493,-1.53279 -5.36476,-4.44509 v -5.36477 c -0.15328,-7.9705 -0.15328,-16.70741 -0.15328,-26.36399 0,-9.50329 0,-18.2402 -0.15328,-26.21071 v -7.51067 c 0.15328,-0.76639 0.30656,-1.37951 0.76639,-1.83935 0.30656,-0.30655 0.61312,-0.45983 1.07296,-0.61311 0.30655,0 1.07295,0 2.1459,-0.15328 v -1.99263 z m 53.34107,15.3279 -5.21149,-22.37873 -1.83935,0.45984 c 0,0.76639 0.15328,1.53279 0.30656,1.99262 0.15328,0.61312 0,1.07296 -0.45984,1.37951 -0.45983,0.30656 -0.91967,0.45984 -1.22623,0.61312 -0.45983,0.15328 -1.07295,0.15328 -1.99262,0 -0.91968,0 -1.68607,0 -2.45247,-0.15328 -0.76639,0 -1.83935,0 -3.06558,-0.15328 h -3.67869 c -4.4451,0 -8.12379,1.68607 -11.03609,4.90493 -2.9123,3.21886 -4.44509,6.89756 -4.44509,11.03609 0,3.52542 0.76639,6.89755 2.29918,10.11641 1.53279,3.21886 3.37214,6.13116 5.67132,8.73691 l 6.43772,7.81723 c 2.14591,2.60574 3.98526,5.8246 5.36477,9.35001 1.37951,3.52542 2.1459,7.3574 1.99262,11.49593 -0.15327,4.13853 -1.22623,7.81723 -3.52541,11.03609 -2.29919,3.21886 -5.05821,5.8246 -8.27707,7.51067 -3.37214,1.68607 -7.20411,2.45246 -11.49592,2.29919 -4.29182,-0.15328 -8.43035,-1.37952 -12.26233,-3.83198 -3.06558,-1.83935 -5.36476,-4.29181 -7.05083,-7.35739 -1.68607,-2.9123 -2.60574,-5.67133 -2.75902,-8.27707 -0.15328,-2.60574 0,-5.36476 0.45984,-8.27706 0.45983,-2.91231 0.76639,-4.75165 1.22623,-5.82461 0.30656,-1.07295 0.61311,-1.83935 0.76639,-2.29918 -3.67869,2.60574 -5.97788,6.13116 -7.05083,10.88281 -1.07296,4.75165 -1.07296,9.5033 0.30656,14.25494 1.22623,4.75165 3.83197,9.04347 7.66395,13.182 3.83197,4.13853 8.43034,6.74428 13.79511,8.12379 2.29918,0.45983 4.75165,0.76639 7.66395,0.91967 2.75902,0.15328 5.97788,-0.30656 9.80985,-1.22623 3.83198,-0.7664 7.20412,-2.14591 10.42298,-4.13853 3.21886,-1.83935 6.13116,-4.75165 8.7369,-8.89019 2.60574,-3.98525 4.29181,-8.89018 5.05821,-14.5615 1.99262,-13.02872 -3.6787,-27.13039 -16.86069,-42.45829 -1.99263,-2.29918 -3.52542,-4.59837 -4.29182,-6.89755 -0.91967,-2.29919 -1.22623,-4.13854 -0.91967,-5.67133 0.15328,-1.37951 0.76639,-2.75902 1.68607,-3.83197 0.76639,-1.07295 1.83935,-1.99263 3.06558,-2.45247 1.07295,-0.45983 2.29918,-0.45983 3.37214,-0.30655 1.37951,0.30655 2.60574,0.91967 3.98525,1.99262 1.37951,1.07296 2.45247,2.14591 3.21886,3.21886 0.7664,1.22624 1.53279,2.60575 2.29919,3.98526 0.76639,1.37951 1.22623,2.45246 1.37951,2.9123 l 0.45983,1.22623 z"
         id="text1-7"
         style="font-size:153.279px;font-family:'Dragonlord PERSONAL USE ONLY';-inkscape-font-specification:'Dragonlord PERSONAL USE ONLY';fill-opacity:0.988235;stroke-width:19.1599;stroke-opacity:0.988235"
         aria-label="Dragons" />
    </g>
    <text
       xml:space="preserve"
       transform="scale(0.26458333)"
       id="text2"
       style="font-style:normal;font-variant:normal;font-weight:normal;font-stretch:normal;font-size:8px;font-family:'Dragonlord PERSONAL USE ONLY';-inkscape-font-specification:'Dragonlord PERSONAL USE ONLY';white-space:pre;shape-inside:url(#rect2);display:inline;fill:#000000;fill-opacity:0.988235;stroke-opacity:0.988235" />
    <text
       xml:space="preserve"
       style="font-style:normal;font-variant:normal;font-weight:normal;font-stretch:normal;font-size:9.87777px;font-family:'Libre Baskerville';-inkscape-font-specification:'Libre Baskerville';fill:#000000;fill-opacity:0.988235;stroke-width:0.264583;stroke-opacity:0.988235"
       x="607.28192"
       y="211.26825"
       id="text4"><tspan
         sodipodi:role="line"
         id="tspan4"
         style="stroke-width:0.264583"></tspan></text>
    <path
       d="m 770.1476,318.20992 c 0,-34.3345 -0.15328,-42.30501 -0.15328,-49.50912 0,-7.81723 0.91967,-10.88281 1.99262,-11.49593 0.45984,-0.30655 1.07296,-0.45983 1.83935,-0.30655 3.21886,0.45983 6.13116,3.83197 8.58363,10.26969 2.29918,6.591 3.52541,13.94839 3.37214,22.22546 -0.15328,9.35002 -1.22624,17.16724 -3.37214,23.45168 -2.29919,6.28444 -4.90493,9.35002 -7.97051,9.5033 -2.60574,0.15328 -4.29181,-1.22623 -4.29181,-4.13853 z m -16.40086,-64.68374 c 1.53279,0.15328 2.75903,0.61311 3.6787,1.37951 0.91967,0.91967 1.53279,2.14591 1.53279,3.52542 l 0.15328,61.92472 c 0,1.83934 -0.30656,3.06558 -0.91968,3.83197 -0.76639,0.7664 -1.83934,1.07295 -3.21885,1.22623 v 2.60575 c 16.24757,0 17.4738,0 19.15987,-0.15328 4.59837,0 8.7369,-1.99263 12.26232,-5.97788 3.52542,-3.83198 6.28444,-8.73691 7.97051,-14.56151 1.68607,-5.8246 2.45246,-11.95576 2.45246,-18.54676 0,-9.65658 -2.1459,-18.2402 -6.59099,-25.75087 -4.44509,-7.51067 -9.65658,-11.34265 -15.63446,-11.34265 h -20.84595 z m 70.66166,-3.83198 c -6.28444,0 -11.80248,3.83198 -16.24757,11.49593 -4.44509,7.81723 -6.74428,17.16725 -6.74428,28.05006 0,10.88281 2.29919,20.23283 6.74428,28.05005 4.44509,7.81723 9.96313,11.64921 16.24757,11.64921 6.28444,0 11.80249,-3.83198 16.24758,-11.64921 4.44509,-7.81722 6.591,-17.16724 6.591,-28.05005 0,-10.88281 -2.14591,-20.23283 -6.591,-28.05006 -4.44509,-7.66395 -9.96314,-11.49593 -16.24758,-11.49593 z m -11.6492,40.00582 c 0,-3.37213 0.15328,-6.89755 0.61312,-10.42297 0.45983,-3.52542 1.07295,-6.89755 1.99262,-10.42297 0.7664,-3.37214 1.99263,-6.13116 3.6787,-8.43035 1.53279,-2.29918 3.37214,-3.37213 5.36476,-3.52541 3.37214,0.15328 6.28444,3.83197 8.73691,11.03608 2.29918,7.20412 3.52541,14.25495 3.37214,21.15251 0,3.67869 -0.15328,7.35739 -0.61312,11.03609 -0.45984,3.67869 -1.22623,7.20411 -2.14591,10.57625 -0.91967,3.37214 -2.1459,6.13116 -3.83197,8.12378 -1.68607,2.14591 -3.52542,3.21886 -5.51805,3.06559 -2.1459,-0.15328 -3.98525,-1.22624 -5.51804,-3.21886 -1.68607,-1.99263 -2.9123,-4.75165 -3.6787,-8.12379 -0.91967,-3.21886 -1.53279,-6.74428 -1.99262,-10.26969 -0.45984,-3.52542 -0.61312,-7.05084 -0.45984,-10.57626 z m 51.19518,28.66318 v -25.90415 c 0,-8.73691 -0.15328,-16.86069 -0.15328,-24.06481 v -2.60574 c 0,-0.45984 0.15328,-1.37951 0.30656,-2.75902 0,-1.22624 0,-2.14591 0.15328,-2.75903 0,-0.45983 0.15327,-1.22623 0.45983,-1.99262 0.15328,-0.7664 0.61312,-1.22623 1.07296,-1.53279 0.45983,-0.30656 1.07295,-0.45984 1.83934,-0.30656 3.21886,0.45984 6.13116,3.83197 8.58363,10.42297 2.45246,6.591 3.67869,13.94839 3.52541,22.22546 -0.15327,9.5033 -1.22623,17.4738 -3.52541,23.75824 -2.29919,6.28444 -4.90493,9.5033 -7.97051,9.65658 -2.60574,0.15328 -4.29181,-1.22623 -4.29181,-4.13853 z m -16.40086,-65.29686 c 1.37951,0.15328 2.60575,0.61312 3.52542,1.37951 0.91967,0.91968 1.68607,2.14591 1.68607,3.52542 v 10.42297 c 0,7.20412 0,15.3279 0.15328,24.06481 v 27.89678 c 0,1.99262 -0.45984,3.21885 -1.07295,3.98525 -0.7664,0.76639 -1.83935,1.07295 -3.21886,1.07295 v 2.75902 l 15.3279,-0.15327 h 3.98525 c 4.75165,0 8.89018,-1.99263 12.4156,-5.97789 3.52542,-3.98525 6.28444,-8.89018 7.97051,-14.86806 1.68607,-5.8246 2.45246,-11.95576 2.45246,-18.54676 0.15328,-9.65658 -2.1459,-18.39348 -6.59099,-25.90415 -4.4451,-7.51067 -9.65658,-11.49593 -15.63446,-11.49593 h -20.99923 z m 70.96824,-3.37214 c -6.28444,0 -11.80248,3.83198 -16.24757,11.49593 -4.44509,7.81723 -6.74428,17.16725 -6.74428,28.05006 0,10.88281 2.29919,20.23283 6.74428,28.05005 4.44509,7.81723 9.96313,11.64921 16.24757,11.64921 6.28444,0 11.80248,-3.83198 16.24758,-11.64921 4.44509,-7.81722 6.59099,-17.16724 6.59099,-28.05005 0,-10.88281 -2.1459,-20.23283 -6.59099,-28.05006 -4.4451,-7.66395 -9.96314,-11.49593 -16.24758,-11.49593 z m -11.6492,40.00582 c 0,-3.37213 0.15328,-6.89755 0.61311,-10.42297 0.45984,-3.52542 1.07296,-6.89755 1.99263,-10.42297 0.7664,-3.37214 1.99263,-6.13116 3.6787,-8.43035 1.53279,-2.29918 3.37213,-3.37213 5.36476,-3.52541 3.37214,0.15328 6.28444,3.83197 8.7369,11.03608 2.29919,7.20412 3.52542,14.25495 3.37214,21.15251 0,3.67869 -0.15328,7.35739 -0.61311,11.03609 -0.45984,3.67869 -1.22624,7.20411 -2.14591,10.57625 -0.91967,3.37214 -2.14591,6.13116 -3.83197,8.12378 -1.68607,2.14591 -3.52542,3.21886 -5.51805,3.06559 -2.1459,-0.15328 -3.98525,-1.22624 -5.51804,-3.21886 -1.68607,-1.99263 -2.9123,-4.75165 -3.6787,-8.12379 -0.91967,-3.21886 -1.53279,-6.74428 -1.99263,-10.26969 -0.45983,-3.52542 -0.61311,-7.05084 -0.45983,-10.57626 z m 67.28947,-38.31975 v 1.99263 c 1.68607,0.15328 2.9123,0.45984 3.6787,1.07295 0.76639,0.61312 1.07295,1.68607 1.07295,3.37214 v 0.7664 c 0.15328,13.94838 0.15328,24.21808 0.15328,30.50252 -0.15328,3.67869 -0.30656,7.35739 -0.7664,11.03609 -0.45983,3.67869 -1.07295,7.20411 -1.83934,10.57625 -0.91968,3.37214 -2.14591,6.13116 -3.6787,8.12378 -1.53279,2.14591 -3.21886,3.21886 -5.21149,3.06559 -1.99262,-0.15328 -3.67869,-1.22624 -5.21148,-3.21886 -1.53279,-1.99263 -2.60575,-4.75165 -3.37214,-8.12379 -0.7664,-3.21886 -1.37951,-6.74428 -1.68607,-10.26969 -0.45984,-3.52542 -0.61312,-7.05084 -0.61312,-10.57626 0,-6.28444 0,-16.55413 0.15328,-30.50252 v -0.76639 c 0,-1.68607 0.30656,-3.06558 1.07296,-3.83198 0.76639,-0.76639 1.99262,-1.07295 3.67869,-1.22623 v -1.99263 h -20.23283 v 1.99263 c 1.68607,0.15328 2.9123,0.45984 3.6787,1.07295 0.76639,0.61312 1.07295,1.83935 1.07295,3.52542 v 0.45984 c -0.15328,10.11641 -0.15328,20.3861 0,30.80908 0.15328,12.10904 1.99263,21.61234 5.8246,28.81645 3.83198,7.20411 9.04347,10.72953 15.63446,10.88281 7.20412,0 12.56888,-3.52542 16.0943,-10.57625 3.52542,-6.89756 5.21149,-16.70741 5.36476,-29.12301 0.15328,-11.18937 0.15328,-21.9189 0.30656,-32.49515 0.45984,-2.14591 1.99263,-3.21886 4.59837,-3.37214 v -1.99263 z m 33.87467,65.7567 c -2.6057,-4.90493 -4.1385,-11.03609 -4.5983,-18.24021 -0.6131,-7.20411 -0.6131,-13.33527 0.1532,-18.39348 0.6132,-5.0582 1.3796,-8.7369 2.2992,-11.18936 1.8394,-5.21149 3.9853,-8.58363 6.2845,-10.2697 2.2992,-1.53279 4.2918,-1.07295 6.1311,1.22623 1.3795,1.68607 2.7591,3.6787 3.832,6.13116 h 1.5328 l -0.7664,-7.20411 c -0.3066,-2.75902 -0.4598,-4.90493 -0.4598,-6.591 l -1.2263,-0.30655 c -0.7664,-0.15328 -1.686,-0.45984 -3.0655,-0.61312 -1.3796,-0.15328 -2.7591,-0.30656 -3.832,-0.30656 -3.6787,-0.15328 -7.2041,1.37951 -10.423,4.59837 -3.2189,3.21886 -5.8246,6.74428 -7.81722,10.88281 -2.45247,5.36477 -3.83198,12.10904 -4.29181,20.53939 -0.45984,8.43034 0.61311,16.09429 3.06558,22.99185 1.99262,5.36476 4.59837,9.5033 7.51065,12.56888 2.9123,3.21886 6.7443,4.90493 11.6492,5.05821 h 0.9197 c 5.9779,-0.15328 9.9631,-0.91968 12.109,-2.60575 l 2.4525,-23.45169 -2.1459,-0.30655 c -1.073,10.26969 -4.2918,16.86069 -9.35,19.61971 -1.8394,0.76639 -3.6787,0.76639 -5.6713,-0.15328 -1.9927,-0.91967 -3.5255,-2.29919 -4.2919,-3.98525 z m 18.5467,-65.7567 v 1.99263 c 1.5327,0.15328 2.6057,0.30656 3.2188,0.76639 0.4599,0.45984 0.7664,1.22624 0.9197,2.60575 v 6.59099 c 0,7.97051 0,16.70742 0.1533,26.36399 v 32.95499 c 0,1.37951 -0.3066,2.14591 -0.7664,2.60574 -0.6131,0.45984 -1.6861,0.61312 -3.3722,0.7664 v 1.99263 h 34.1813 l 3.2188,-26.36399 -2.1459,-0.30656 c -1.3795,4.13853 -2.9123,7.81723 -4.4451,10.88281 -3.6787,7.51067 -7.2041,11.03609 -10.5762,10.57625 -1.9927,-0.30656 -3.2189,-1.68607 -3.5255,-4.29181 v -28.81646 c -0.1532,-7.35739 -0.1532,-11.95576 -0.1532,-13.64183 2.9123,-0.15328 5.3647,0.7664 7.6639,2.45247 2.9123,2.1459 4.5984,4.90492 5.3648,8.43034 l 2.2992,0.15328 c -1.9927,-6.74428 -3.2189,-13.64183 -3.3722,-20.84594 h -1.5328 v 1.22623 c 0,0.91967 -0.4598,1.83935 -1.3795,2.60574 -0.9196,0.7664 -2.2992,1.22623 -3.9852,1.22623 -1.6861,0 -3.3722,-0.15328 -5.0582,-0.45983 v -7.81723 c 0.1532,-2.75903 1.5328,-4.59837 3.8319,-5.36477 2.2992,-0.76639 5.0583,0 7.9706,2.14591 1.3795,1.22623 2.9123,3.52541 4.445,6.89755 l 1.6861,-0.15328 -1.3795,-15.17462 z"
       id="text1-1"
       style="font-size:153.279px;font-family:'Dragonlord PERSONAL USE ONLY';-inkscape-font-specification:'Dragonlord PERSONAL USE ONLY';fill-opacity:0.988235;stroke-width:19.1599;stroke-opacity:0.988235"
       aria-label="Dodouce" />
    <path
       style="font-size:17.0557px;font-family:'Libre Baskerville';-inkscape-font-specification:'Libre Baskerville';fill:#4d4d4d;fill-opacity:0.988235;stroke-width:0.456849;stroke-opacity:0.988235"
       d="m 398.38352,366.01279 c -1.39856,-0.86984 -2.52424,-1.22801 -3.8887,-1.22801 -3.87164,0 -6.53233,2.83125 -6.53233,6.95873 0,3.97397 2.49013,6.51527 6.34472,6.51527 1.68851,0 3.12119,-0.49461 4.33215,-1.51795 l 0.39228,1.3474 h 0.59695 v -4.24687 h -0.69928 c -0.61401,2.30252 -2.06374,3.49642 -4.22982,3.49642 -2.86536,0 -4.45154,-2.04669 -4.45154,-5.69661 0,-3.71814 1.63735,-5.96949 4.40037,-5.96949 2.01258,0 3.54759,1.22801 4.04221,3.20647 h 0.63106 l -0.1535,-3.92281 h -0.47756 z m 7.7774,2.86536 c -2.55835,0 -4.72443,1.92729 -4.72443,4.62209 0,2.78008 2.16608,4.75854 4.72443,4.75854 2.59247,0 4.79266,-1.99551 4.79266,-4.75854 0,-2.67774 -2.20019,-4.62209 -4.79266,-4.62209 z m 0,0.81867 c 1.72263,0 2.86536,1.55207 2.86536,3.82048 0,2.33663 -1.12568,3.87164 -2.86536,3.87164 -1.70557,0 -2.79713,-1.51795 -2.79713,-3.87164 0,-2.28547 1.10862,-3.82048 2.79713,-3.82048 z m 9.38063,3.49642 c 0,-1.07451 0.0512,-1.38151 0.28994,-1.84202 0.46051,-0.921 1.44974,-1.53501 2.45602,-1.53501 1.46679,0 1.96141,0.8869 1.96141,3.53053 v 2.14902 c 0,1.72263 -0.13645,1.91024 -1.43268,1.99552 v 0.59695 h 4.53682 v -0.59695 c -1.33035,-0.0853 -1.43268,-0.25584 -1.43268,-2.13197 v -2.16607 c 0,-1.07451 0.0512,-1.38151 0.28994,-1.84202 0.49462,-0.921 1.44974,-1.53501 2.43897,-1.53501 1.46679,0 1.99552,0.92101 1.99552,3.53053 v 2.14902 c 0,1.70557 -0.1535,1.92729 -1.44974,1.99552 v 0.59695 h 4.53682 v -0.59695 c -1.29623,-0.0853 -1.41562,-0.25584 -1.41562,-2.13197 v -2.71185 c 0,-1.48385 -0.15351,-2.25135 -0.56284,-2.78008 -0.46051,-0.61401 -1.39857,-0.98923 -2.45602,-0.98923 -1.3474,0 -2.62658,0.63106 -3.46231,1.68851 h -0.0682 c -0.37523,-1.07451 -1.39857,-1.68851 -2.83125,-1.68851 -1.36446,0 -2.45602,0.54578 -3.47936,1.70557 h -0.0853 l -0.22173,-1.70557 -2.78007,0.64811 v 0.59695 c 1.04039,0 1.26212,0.10234 1.38151,0.68223 0.0853,0.307 0.11939,1.21096 0.11939,2.50719 v 2.18313 c 0,1.72263 -0.1535,1.91024 -1.46679,1.99552 v 0.59695 h 4.53681 v -0.59695 c -1.29623,-0.0853 -1.39856,-0.23878 -1.39856,-2.13197 z m 18.11315,-4.24687 -3.2747,0.64812 v 0.57989 c 1.12568,0 1.44974,0.1535 1.55207,0.69929 0.0853,0.307 0.11939,1.17684 0.11939,2.49013 v 6.37883 c 0,1.63735 -0.27289,1.9614 -1.63734,2.01257 v 0.59695 h 5.25315 v -0.59695 c -1.68851,-0.0512 -1.94435,-0.32406 -1.94435,-2.13196 v -2.49013 c 0.75045,0.80162 1.58618,1.12567 2.62658,1.12567 2.5413,0 4.46859,-1.89318 4.46859,-4.67326 0,-2.72891 -1.87612,-4.70737 -4.45153,-4.70737 -1.10863,0 -1.9273,0.52872 -2.64364,1.39857 h -0.0682 z m 0.51167,1.82496 c 0.44345,-0.68223 1.17684,-1.07451 1.99552,-1.07451 1.63734,0 2.72891,1.60324 2.72891,3.95692 0,2.37075 -1.07451,3.76931 -2.62658,3.76931 -0.78456,0 -1.55207,-0.42639 -2.08079,-1.14273 -0.35817,-0.4605 -0.46051,-0.92101 -0.46051,-2.14902 v -1.33034 c 0,-0.98923 0.1535,-1.56913 0.44345,-2.02963 z m 15.86182,5.25316 c -0.85279,0.93806 -1.6544,1.3474 -2.59247,1.3474 -1.82496,0 -3.01886,-1.55207 -3.01886,-3.92281 0,-0.30701 0.0171,-0.5799 0.0682,-0.76751 h 5.61132 c 0.4605,0 0.52873,-0.0341 0.52873,-0.34111 0,-2.21725 -1.27918,-3.46231 -3.46231,-3.46231 -2.74597,0 -4.67326,1.99552 -4.67326,4.79265 0,2.72891 1.8079,4.58798 4.46859,4.58798 1.44974,0 2.60952,-0.56283 3.59875,-1.75673 z m -5.42371,-4.12748 c 0.28994,-1.44974 1.0745,-2.20019 2.28546,-2.20019 1.14273,0 1.87613,0.68223 1.87613,1.72263 0,0.40933 -0.10234,0.47756 -1.02335,0.47756 z m 10.50631,1.22801 c 0,-1.07451 0.0682,-1.36446 0.307,-1.82496 0.47756,-0.92101 1.39857,-1.5009 2.40486,-1.5009 1.41562,0 1.94435,0.90395 1.94435,3.47936 v 2.25135 c 0,1.68852 -0.13645,1.91024 -1.41563,1.97846 v 0.5799 h 4.41743 v -0.5799 c -1.24507,-0.0853 -1.38151,-0.25583 -1.38151,-2.09785 v -2.8483 c 0,-1.44974 -0.13645,-2.20019 -0.52873,-2.72891 -0.4605,-0.5799 -1.38151,-0.95512 -2.42191,-0.95512 -1.3474,0 -2.55835,0.63106 -3.41114,1.68851 h -0.0682 l -0.20467,-1.68851 -2.72891,0.64811 v 0.54579 c 0.98923,0 1.22801,0.10233 1.36445,0.71634 0.0682,0.28994 0.10234,1.14273 0.10234,2.47307 v 2.26841 c 0,1.70557 -0.17056,1.89318 -1.43268,1.97846 v 0.5799 h 4.46859 v -0.5799 c -1.31329,-0.0853 -1.41562,-0.25583 -1.41562,-2.09785 z m 16.32228,5.13376 2.83125,-0.18761 v -0.57989 c -1.05745,0 -1.24507,-0.1535 -1.38151,-0.69929 -0.10233,-0.42639 -0.11939,-1.44973 -0.11939,-3.01886 V 363.932 l -3.49642,0.64811 v 0.51167 c 1.17684,0 1.63735,0.18762 1.75674,0.68223 0.0682,0.307 0.10233,1.22801 0.10233,2.50719 v 1.73968 c -0.78456,-0.78456 -1.62029,-1.14273 -2.6948,-1.14273 -2.55835,0 -4.43448,1.97846 -4.43448,4.67326 0,2.74597 1.85907,4.70737 4.43448,4.70737 1.24507,0 2.11491,-0.4605 2.93358,-1.60323 h 0.0682 z m -0.34111,-4.24687 c 0,1.22801 -0.11939,1.85908 -0.44345,2.35369 -0.44345,0.68223 -1.41562,1.07451 -2.21724,1.07451 -1.63735,0 -2.50719,-1.56912 -2.50719,-3.97398 0,-2.30252 0.8869,-3.76931 2.50719,-3.76931 0.78456,0 1.68852,0.35817 2.20019,1.0404 0.35817,0.4605 0.4605,0.95512 0.4605,2.14902 z m 7.48744,-5.13376 -3.34291,0.64811 v 0.59695 c 1.12567,0 1.44973,0.15351 1.55207,0.68223 0.0853,0.307 0.11939,1.1939 0.11939,2.50719 v 2.18313 c 0,1.60324 -0.25584,1.92729 -1.63735,1.99552 v 0.59695 h 4.89498 v -0.59695 c -1.3474,-0.0512 -1.58618,-0.35817 -1.58618,-2.11491 z m -1.9614,-3.46231 c 0,0.59695 0.4605,1.05745 1.05745,1.05745 0.59695,0 1.05746,-0.4605 1.05746,-1.05745 0,-0.59695 -0.46051,-1.05745 -1.05746,-1.05745 -0.59695,0 -1.05745,0.4605 -1.05745,1.05745 z m 11.78548,8.03324 c 0,0.97217 -0.0682,1.29623 -0.28995,1.82496 -0.56283,1.31328 -1.36445,1.9614 -2.33663,1.9614 -1.26212,0 -1.82496,-1.07451 -1.82496,-3.53053 v -4.6562 h -3.08708 v 0.59694 c 1.31329,0.11939 1.41562,0.2729 1.41562,2.13197 v 2.71185 c 0,1.39857 0.17056,2.26841 0.54579,2.76303 0.4605,0.614 1.44973,1.00628 2.40485,1.00628 1.22801,0 2.3878,-0.63106 3.25764,-2.02963 h 0.0682 l 0.18761,2.04669 2.81419,-0.20467 v -0.59695 c -1.04039,0 -1.27917,-0.10233 -1.38151,-0.68223 -0.0682,-0.40933 -0.10233,-1.21095 -0.10233,-2.50718 v -5.2361 h -3.08708 v 0.59694 c 1.31329,0.13645 1.41562,0.2729 1.41562,2.13197 z m 7.29984,-0.25584 c 0,-1.07451 0.0512,-1.38151 0.28995,-1.84202 0.4605,-0.921 1.44973,-1.53501 2.45602,-1.53501 1.46679,0 1.96141,0.8869 1.96141,3.53053 v 2.14902 c 0,1.72263 -0.13645,1.91024 -1.43268,1.99552 v 0.59695 h 4.53681 v -0.59695 c -1.33034,-0.0853 -1.43267,-0.25584 -1.43267,-2.13197 v -2.16607 c 0,-1.07451 0.0512,-1.38151 0.28994,-1.84202 0.49462,-0.921 1.44974,-1.53501 2.43897,-1.53501 1.46679,0 1.99551,0.92101 1.99551,3.53053 v 2.14902 c 0,1.70557 -0.1535,1.92729 -1.44973,1.99552 v 0.59695 h 4.53682 v -0.59695 c -1.29624,-0.0853 -1.41563,-0.25584 -1.41563,-2.13197 v -2.71185 c 0,-1.48385 -0.1535,-2.25135 -0.56284,-2.78008 -0.4605,-0.61401 -1.39856,-0.98923 -2.45602,-0.98923 -1.3474,0 -2.62657,0.63106 -3.4623,1.68851 h -0.0682 c -0.37522,-1.07451 -1.39856,-1.68851 -2.83124,-1.68851 -1.36446,0 -2.45602,0.54578 -3.47937,1.70557 h -0.0853 l -0.22173,-1.70557 -2.78008,0.64811 v 0.59695 c 1.0404,0 1.26212,0.10234 1.38151,0.68223 0.0853,0.307 0.11939,1.21096 0.11939,2.50719 v 2.18313 c 0,1.72263 -0.1535,1.91024 -1.46679,1.99552 v 0.59695 h 4.53682 v -0.59695 c -1.29623,-0.0853 -1.39857,-0.23878 -1.39857,-2.13197 z m 27.68141,5.06554 2.83125,-0.18761 v -0.57989 c -1.05745,0 -1.24506,-0.1535 -1.38151,-0.69929 -0.10233,-0.42639 -0.11939,-1.44973 -0.11939,-3.01886 V 363.932 l -3.49642,0.64811 v 0.51167 c 1.17684,0 1.63735,0.18762 1.75674,0.68223 0.0682,0.307 0.10233,1.22801 0.10233,2.50719 v 1.73968 c -0.78456,-0.78456 -1.62029,-1.14273 -2.6948,-1.14273 -2.55835,0 -4.43448,1.97846 -4.43448,4.67326 0,2.74597 1.85907,4.70737 4.43448,4.70737 1.24507,0 2.11491,-0.4605 2.93358,-1.60323 h 0.0682 z m -0.34111,-4.24687 c 0,1.22801 -0.11939,1.85908 -0.44345,2.35369 -0.44345,0.68223 -1.41562,1.07451 -2.21724,1.07451 -1.63735,0 -2.50719,-1.56912 -2.50719,-3.97398 0,-2.30252 0.8869,-3.76931 2.50719,-3.76931 0.78456,0 1.68852,0.35817 2.20019,1.0404 0.35817,0.4605 0.4605,0.95512 0.4605,2.14902 z m 11.97309,2.01258 c -0.85278,0.93806 -1.6544,1.3474 -2.59246,1.3474 -1.82496,0 -3.01886,-1.55207 -3.01886,-3.92281 0,-0.30701 0.0171,-0.5799 0.0682,-0.76751 h 5.61133 c 0.4605,0 0.52872,-0.0341 0.52872,-0.34111 0,-2.21725 -1.27917,-3.46231 -3.4623,-3.46231 -2.74597,0 -4.67327,1.99552 -4.67327,4.79265 0,2.72891 1.80791,4.58798 4.4686,4.58798 1.44973,0 2.60952,-0.56283 3.59875,-1.75673 z m -5.42371,-4.12748 c 0.28995,-1.44974 1.07451,-2.20019 2.28546,-2.20019 1.14274,0 1.87613,0.68223 1.87613,1.72263 0,0.40933 -0.10233,0.47756 -1.02334,0.47756 z m 15.50364,2.89947 c 0,-0.90396 0.10233,-1.7738 0.28994,-2.42191 0.34112,-1.1939 1.02335,-2.0808 1.63735,-2.0808 0.40934,0 0.63106,0.42639 1.3474,0.42639 0.63106,0 0.98923,-0.32405 0.98923,-0.86984 0,-0.59695 -0.44345,-0.97217 -1.17684,-0.97217 -1.15979,0 -2.35369,0.93806 -2.96769,2.30252 h -0.0682 l -0.23878,-2.11491 -2.98474,0.64812 v 0.59695 c 1.46679,0 1.5009,0.0853 1.5009,3.18941 v 1.99552 c 0,1.72263 -0.1535,1.92729 -1.46679,1.99552 v 0.59695 h 4.53682 v -0.59695 c -1.29624,-0.0853 -1.39857,-0.23878 -1.39857,-2.11491 z m 12.53593,1.22801 c -0.85278,0.93806 -1.6544,1.3474 -2.59246,1.3474 -1.82496,0 -3.01886,-1.55207 -3.01886,-3.92281 0,-0.30701 0.0171,-0.5799 0.0682,-0.76751 h 5.61133 c 0.4605,0 0.52872,-0.0341 0.52872,-0.34111 0,-2.21725 -1.27917,-3.46231 -3.4623,-3.46231 -2.74597,0 -4.67327,1.99552 -4.67327,4.79265 0,2.72891 1.80791,4.58798 4.4686,4.58798 1.44973,0 2.60952,-0.56283 3.59875,-1.75673 z m -5.42371,-4.12748 c 0.28995,-1.44974 1.07451,-2.20019 2.28546,-2.20019 1.14274,0 1.87613,0.68223 1.87613,1.72263 0,0.40933 -0.10233,0.47756 -1.02334,0.47756 z m 4.65621,-4.91204 -2.21724,-2.02963 c -0.4264,-0.39228 -0.78457,-0.56284 -1.14274,-0.56284 -0.39228,0 -0.64811,0.22172 -0.64811,0.59695 0,0.35817 0.32406,0.63106 0.86984,0.88689 l 2.33663,1.10863 z m 6.83934,7.43628 c -0.97218,0 -1.6203,-0.98923 -1.6203,-2.49013 0,-1.48385 0.63106,-2.42191 1.60324,-2.42191 0.97217,0 1.53501,0.90395 1.53501,2.43896 0,1.55207 -0.56284,2.47308 -1.51795,2.47308 z m -0.93807,1.99552 c -0.78456,-0.0512 -1.21095,-0.20467 -1.21095,-0.56284 0,-0.47756 0.47756,-0.61401 1.85907,-0.71634 2.3878,-0.17056 3.61581,-1.33034 3.61581,-3.24058 0,-0.66518 -0.11939,-1.14273 -0.40934,-1.58618 0.27289,-0.18762 0.56284,-0.28995 0.83573,-0.28995 0.56284,0 0.64812,0.52873 1.27918,0.52873 0.39228,0 0.68222,-0.25584 0.68222,-0.63106 0,-0.63107 -0.52872,-1.0404 -1.3474,-1.0404 -0.51167,0 -1.09156,0.27289 -1.85907,0.90395 -0.63106,-0.57989 -1.56912,-0.90395 -2.55835,-0.90395 -1.94435,0 -3.35997,1.27918 -3.35997,3.0018 0,1.17684 0.75045,2.30252 1.75673,2.71186 v 0.0682 c -1.00628,0.1535 -1.73968,0.83573 -1.73968,1.63735 0,0.93806 0.68223,1.5009 1.94435,1.63735 0.61401,0.0682 1.97846,0.22172 3.05297,0.37522 0.83573,0.11939 1.55207,0.76751 1.55207,1.67146 0,1.1939 -0.97218,1.79085 -2.91653,1.79085 -1.8079,0 -2.8483,-0.5799 -2.8483,-1.56913 0,-0.68222 0.4264,-1.27917 1.0404,-1.41562 -0.307,-0.23878 -0.64812,-0.35817 -1.0404,-0.35817 -0.83573,0 -1.51795,0.75045 -1.51795,1.70557 0,1.41562 1.75673,2.3878 4.29803,2.3878 2.8483,0 4.41743,-1.0404 4.41743,-2.93358 0,-1.51796 -1.07451,-2.60952 -2.71186,-2.8483 -1.0404,-0.15351 -1.72262,-0.23878 -2.81419,-0.32406 z m 10.04581,-12.48477 -3.22352,0.63106 v 0.57989 c 1.09156,0 1.41562,0.13645 1.53501,0.66517 0.0682,0.28995 0.10233,1.15979 0.10233,2.3878 v 7.35101 c 0,1.56912 -0.25583,1.87612 -1.60323,1.94435 v 0.59695 h 4.70737 v -0.59695 c -1.31329,-0.0512 -1.51796,-0.34112 -1.51796,-2.06374 z m 10.35283,12.09249 c -0.85278,0.93806 -1.6544,1.3474 -2.59246,1.3474 -1.82496,0 -3.01886,-1.55207 -3.01886,-3.92281 0,-0.30701 0.017,-0.5799 0.0682,-0.76751 h 5.61133 c 0.4605,0 0.52872,-0.0341 0.52872,-0.34111 0,-2.21725 -1.27918,-3.46231 -3.4623,-3.46231 -2.74597,0 -4.67327,1.99552 -4.67327,4.79265 0,2.72891 1.80791,4.58798 4.4686,4.58798 1.44973,0 2.60952,-0.56283 3.59875,-1.75673 z m -5.42371,-4.12748 c 0.28995,-1.44974 1.07451,-2.20019 2.28546,-2.20019 1.14274,0 1.87613,0.68223 1.87613,1.72263 0,0.40933 -0.10233,0.47756 -1.02334,0.47756 z m 8.63019,5.59427 c 0.614,0.49461 1.39856,0.7675 2.28546,0.7675 1.68852,0 2.8483,-0.98923 2.8483,-2.59246 0,-1.29624 -0.7675,-1.87613 -2.72891,-3.10414 -1.15979,-0.71634 -1.67146,-1.07451 -1.67146,-1.82496 0,-0.7334 0.51167,-1.15979 1.27918,-1.15979 0.86984,0 1.41562,0.54578 1.91024,1.9273 h 0.44345 v -2.45602 h -0.32406 l -0.34112,0.35816 c -0.49461,-0.32405 -1.21095,-0.52872 -1.82496,-0.52872 -1.43267,0 -2.5413,1.07451 -2.5413,2.62658 0,1.27917 0.76751,1.82496 2.30252,2.79713 1.67146,1.0404 1.97847,1.24507 1.97847,1.91024 0,0.90395 -0.5799,1.3474 -1.48385,1.3474 -1.1939,0 -1.97846,-0.78456 -2.42191,-2.40485 h -0.42639 v 2.93358 h 0.37522 z m 14.41208,-8.54491 -3.27469,0.64812 v 0.57989 c 1.12567,0 1.44973,0.1535 1.55206,0.69929 0.0853,0.307 0.11939,1.17684 0.11939,2.49013 v 6.37883 c 0,1.63735 -0.27289,1.9614 -1.63734,2.01257 v 0.59695 h 5.25315 v -0.59695 c -1.68851,-0.0512 -1.94435,-0.32406 -1.94435,-2.13196 v -2.49013 c 0.75045,0.80162 1.58618,1.12567 2.62658,1.12567 2.5413,0 4.46859,-1.89318 4.46859,-4.67326 0,-2.72891 -1.87612,-4.70737 -4.45153,-4.70737 -1.10862,0 -1.9273,0.52872 -2.64364,1.39857 h -0.0682 z m 0.51167,1.82496 c 0.44345,-0.68223 1.17684,-1.07451 1.99552,-1.07451 1.63735,0 2.72891,1.60324 2.72891,3.95692 0,2.37075 -1.07451,3.76931 -2.62658,3.76931 -0.78456,0 -1.55207,-0.42639 -2.08079,-1.14273 -0.35817,-0.4605 -0.46051,-0.92101 -0.46051,-2.14902 v -1.33034 c 0,-0.98923 0.1535,-1.56913 0.44345,-2.02963 z m 13.03056,-1.89318 c -2.55835,0 -4.72443,1.92729 -4.72443,4.62209 0,2.78008 2.16608,4.75854 4.72443,4.75854 2.59247,0 4.79265,-1.99551 4.79265,-4.75854 0,-2.67774 -2.20018,-4.62209 -4.79265,-4.62209 z m 0,0.81867 c 1.72263,0 2.86536,1.55207 2.86536,3.82048 0,2.33663 -1.12568,3.87164 -2.86536,3.87164 -1.70557,0 -2.79713,-1.51795 -2.79713,-3.87164 0,-2.28547 1.10862,-3.82048 2.79713,-3.82048 z m 13.50811,3.75226 c 0,0.97217 -0.0682,1.29623 -0.28995,1.82496 -0.56284,1.31328 -1.36446,1.9614 -2.33663,1.9614 -1.26212,0 -1.82496,-1.07451 -1.82496,-3.53053 v -4.6562 h -3.08708 v 0.59694 c 1.31329,0.11939 1.41562,0.2729 1.41562,2.13197 v 2.71185 c 0,1.39857 0.17056,2.26841 0.54578,2.76303 0.46051,0.614 1.44974,1.00628 2.40486,1.00628 1.22801,0 2.3878,-0.63106 3.25764,-2.02963 h 0.0682 l 0.18761,2.04669 2.81419,-0.20467 v -0.59695 c -1.0404,0 -1.27918,-0.10233 -1.38151,-0.68223 -0.0682,-0.40933 -0.10233,-1.21095 -0.10233,-2.50718 v -5.2361 h -3.08709 v 0.59694 c 1.31329,0.13645 1.41563,0.2729 1.41563,2.13197 z m 7.3169,1.3474 c 0,-0.90396 0.10233,-1.7738 0.28994,-2.42191 0.34112,-1.1939 1.02334,-2.0808 1.63735,-2.0808 0.40934,0 0.63106,0.42639 1.3474,0.42639 0.63106,0 0.98923,-0.32405 0.98923,-0.86984 0,-0.59695 -0.44345,-0.97217 -1.17684,-0.97217 -1.15979,0 -2.35369,0.93806 -2.96769,2.30252 h -0.0682 l -0.23878,-2.11491 -2.98474,0.64812 v 0.59695 c 1.46679,0 1.5009,0.0853 1.5009,3.18941 v 1.99552 c 0,1.72263 -0.1535,1.92729 -1.46679,1.99552 v 0.59695 h 4.53681 v -0.59695 c -1.29623,-0.0853 -1.39856,-0.23878 -1.39856,-2.11491 z m 12.3654,-10.86448 -3.22353,0.63106 v 0.57989 c 1.09157,0 1.41563,0.13645 1.53502,0.66517 0.0682,0.28995 0.10233,1.15979 0.10233,2.3878 v 7.35101 c 0,1.56912 -0.25584,1.87612 -1.60324,1.94435 v 0.59695 h 4.70738 v -0.59695 c -1.31329,-0.0512 -1.51796,-0.34112 -1.51796,-2.06374 z m 7.93092,10.45514 c 0,1.55207 -0.95512,2.83125 -2.13196,2.83125 -0.81868,0 -1.36446,-0.52873 -1.36446,-1.27918 0,-1.00629 0.8869,-1.91024 3.49642,-2.89947 z m -2.45602,-1.00629 c -2.06374,0.8869 -2.76303,1.75674 -2.76303,2.8483 0,1.21096 0.8869,2.01258 2.30252,2.01258 1.26213,0 2.37075,-0.69929 2.9677,-1.80791 h 0.0853 c 0,1.15979 0.49462,1.82496 1.48385,1.82496 0.80162,0 1.62029,-0.39228 1.89318,-0.921 l -0.23878,-0.40934 c -0.20467,0.34111 -0.52872,0.37522 -0.83573,0.37522 -0.51167,0 -0.7675,-0.63106 -0.7675,-1.94435 v -3.82047 c 0,-1.94435 -0.85279,-2.66069 -3.13825,-2.66069 -2.13196,0 -3.34292,0.63106 -3.34292,1.72262 0,0.54579 0.307,0.85279 0.85279,0.85279 0.44344,0 0.63106,-0.17056 0.88689,-0.81867 0.28995,-0.8869 0.51167,-1.10863 1.29624,-1.10863 1.21095,0 1.77379,0.66518 1.77379,2.0808 v 0.69928 z m 14.82144,4.89499 h 0.98923 l 2.50719,-5.78188 c 0.25583,-0.56284 0.69928,-1.87613 1.05745,-2.37075 0.22172,-0.27289 0.52873,-0.47756 0.8869,-0.47756 v -0.59694 h -3.39409 v 0.59694 c 0.90395,0 1.09157,0.15351 1.09157,0.66518 0,0.51167 -0.18762,1.14273 -0.66518,2.26841 l -1.55206,3.66697 h -0.0682 l -1.8079,-4.94615 c -0.11939,-0.34112 -0.23878,-0.68223 -0.23878,-1.05746 0,-0.54578 0.23878,-0.56283 1.14273,-0.59695 v -0.59694 h -4.51976 v 0.59694 c 0.8869,0.0341 1.14273,0.13645 1.68851,1.51796 z m 13.74692,-2.25135 c -0.85279,0.93806 -1.6544,1.3474 -2.59247,1.3474 -1.82496,0 -3.01886,-1.55207 -3.01886,-3.92281 0,-0.30701 0.0171,-0.5799 0.0682,-0.76751 h 5.61132 c 0.4605,0 0.52873,-0.0341 0.52873,-0.34111 0,-2.21725 -1.27918,-3.46231 -3.46231,-3.46231 -2.74597,0 -4.67326,1.99552 -4.67326,4.79265 0,2.72891 1.8079,4.58798 4.46859,4.58798 1.44974,0 2.60952,-0.56283 3.59875,-1.75673 z m -5.42371,-4.12748 c 0.28994,-1.44974 1.0745,-2.20019 2.28546,-2.20019 1.14273,0 1.87613,0.68223 1.87613,1.72263 0,0.40933 -0.10234,0.47756 -1.02335,0.47756 z m 10.60864,2.89947 c 0,-0.90396 0.10234,-1.7738 0.28995,-2.42191 0.34111,-1.1939 1.02334,-2.0808 1.63735,-2.0808 0.40933,0 0.63106,0.42639 1.3474,0.42639 0.63106,0 0.98923,-0.32405 0.98923,-0.86984 0,-0.59695 -0.44345,-0.97217 -1.17684,-0.97217 -1.15979,0 -2.35369,0.93806 -2.9677,2.30252 h -0.0682 l -0.23878,-2.11491 -2.98475,0.64812 v 0.59695 c 1.46679,0 1.5009,0.0853 1.5009,3.18941 v 1.99552 c 0,1.72263 -0.1535,1.92729 -1.46679,1.99552 v 0.59695 h 4.53682 v -0.59695 c -1.29623,-0.0853 -1.39857,-0.23878 -1.39857,-2.11491 z m 6.1571,2.6948 c 0.61401,0.49461 1.39857,0.7675 2.28546,0.7675 1.68852,0 2.84831,-0.98923 2.84831,-2.59246 0,-1.29624 -0.76751,-1.87613 -2.72892,-3.10414 -1.15978,-0.71634 -1.67145,-1.07451 -1.67145,-1.82496 0,-0.7334 0.51167,-1.15979 1.27917,-1.15979 0.86984,0 1.41563,0.54578 1.91024,1.9273 h 0.44345 v -2.45602 h -0.32406 l -0.34111,0.35816 c -0.49462,-0.32405 -1.21096,-0.52872 -1.82496,-0.52872 -1.43268,0 -2.5413,1.07451 -2.5413,2.62658 0,1.27917 0.76751,1.82496 2.30252,2.79713 1.67146,1.0404 1.97846,1.24507 1.97846,1.91024 0,0.90395 -0.57989,1.3474 -1.48385,1.3474 -1.1939,0 -1.97846,-0.78456 -2.42191,-2.40485 h -0.42639 v 2.93358 h 0.37523 z m 9.82408,-8.61313 -3.34291,0.64811 v 0.59695 c 1.12567,0 1.44973,0.15351 1.55206,0.68223 0.0853,0.307 0.11939,1.1939 0.11939,2.50719 v 2.18313 c 0,1.60324 -0.25583,1.92729 -1.63734,1.99552 v 0.59695 h 4.89498 v -0.59695 c -1.3474,-0.0512 -1.58618,-0.35817 -1.58618,-2.11491 z m -1.9614,-3.46231 c 0,0.59695 0.4605,1.05745 1.05745,1.05745 0.59695,0 1.05745,-0.4605 1.05745,-1.05745 0,-0.59695 -0.4605,-1.05745 -1.05745,-1.05745 -0.59695,0 -1.05745,0.4605 -1.05745,1.05745 z m 9.43178,3.46231 c -2.55835,0 -4.72442,1.92729 -4.72442,4.62209 0,2.78008 2.16607,4.75854 4.72442,4.75854 2.59247,0 4.79266,-1.99551 4.79266,-4.75854 0,-2.67774 -2.20019,-4.62209 -4.79266,-4.62209 z m 0,0.81867 c 1.72263,0 2.86536,1.55207 2.86536,3.82048 0,2.33663 -1.12567,3.87164 -2.86536,3.87164 -1.70557,0 -2.79713,-1.51795 -2.79713,-3.87164 0,-2.28547 1.10862,-3.82048 2.79713,-3.82048 z m 9.29535,3.4282 c 0,-1.07451 0.0682,-1.36446 0.307,-1.82496 0.47756,-0.92101 1.39857,-1.5009 2.40486,-1.5009 1.41562,0 1.94435,0.90395 1.94435,3.47936 v 2.25135 c 0,1.68852 -0.13645,1.91024 -1.41562,1.97846 v 0.5799 h 4.41742 v -0.5799 c -1.24506,-0.0853 -1.38151,-0.25583 -1.38151,-2.09785 v -2.8483 c 0,-1.44974 -0.13645,-2.20019 -0.52873,-2.72891 -0.4605,-0.5799 -1.38151,-0.95512 -2.42191,-0.95512 -1.3474,0 -2.55835,0.63106 -3.41114,1.68851 h -0.0682 l -0.20467,-1.68851 -2.72891,0.64811 v 0.54579 c 0.98923,0 1.22801,0.10233 1.36446,0.71634 0.0682,0.28994 0.10233,1.14273 0.10233,2.47307 v 2.26841 c 0,1.70557 -0.17056,1.89318 -1.43268,1.97846 v 0.5799 h 4.4686 v -0.5799 c -1.31329,-0.0853 -1.41563,-0.25583 -1.41563,-2.09785 z m 20.27923,1.31329 c 0,1.94435 -0.85279,3.01886 -2.40486,3.01886 -1.33034,0 -2.23429,-0.80162 -2.23429,-1.96141 0,-0.97218 0.614,-1.67146 1.46679,-1.67146 -0.11939,-0.42639 -0.68223,-0.75045 -1.31329,-0.75045 -1.10862,0 -1.96141,0.93806 -1.96141,2.16607 0,1.73969 1.72263,3.01886 4.07632,3.01886 2.62657,0 4.51976,-1.58618 4.51976,-3.70108 0,-1.72263 -1.24507,-3.03592 -2.95064,-3.47937 V 370.976 c 1.41562,-0.35817 2.55836,-1.62029 2.55836,-3.15531 0,-1.82496 -1.60324,-3.03591 -4.05926,-3.03591 -2.18313,0 -3.64992,0.95512 -3.64992,2.40485 0,1.02335 0.75045,1.80791 1.73968,1.80791 0.59695,0 1.09157,-0.27289 1.1939,-0.64812 -0.7334,0 -1.22801,-0.52873 -1.22801,-1.29623 0,-0.95512 0.75045,-1.53501 1.94435,-1.53501 1.36446,0 2.01257,0.7675 2.01257,2.38779 0,1.80791 -0.81867,3.00181 -2.02963,3.00181 -0.34111,-0.11939 -0.75045,-0.18762 -1.04039,-0.18762 -0.46051,0 -0.75046,0.17056 -0.75046,0.47756 0,0.34112 0.32406,0.5799 0.78457,0.5799 0.34111,0 0.80162,-0.13645 1.14273,-0.30701 1.38151,0 2.18313,1.09157 2.18313,2.9677 z m 4.33212,2.71185 c 0,0.61401 0.49462,1.10862 1.10862,1.10862 0.63106,0 1.12568,-0.49461 1.12568,-1.10862 0,-0.63106 -0.49462,-1.12567 -1.12568,-1.12567 -0.614,0 -1.10862,0.49461 -1.10862,1.12567 z m 7.55569,-10.33575 h 1.5009 c 1.41563,0 2.3878,-0.7334 2.66069,-2.02963 l -0.10233,-0.0171 c -0.42639,0.20467 -1.22801,0.32406 -2.26841,0.32406 -0.8869,0 -1.5009,-0.10233 -1.99552,-0.307 l -1.82496,7.044 c -0.0171,0.0512 -0.0171,0.10234 -0.0171,0.13645 0,0.20467 0.1535,0.34111 0.37522,0.34111 0.18762,0 0.27289,-0.0682 0.40934,-0.47756 0.37523,-1.12567 0.97217,-1.62029 1.91024,-1.62029 1.24506,0 1.73968,0.8869 1.73968,2.81419 0,2.71186 -1.05745,4.48565 -2.83125,4.48565 -2.13196,0 -1.12567,-2.57541 -2.5413,-2.57541 -0.52872,0 -0.81867,0.35817 -0.81867,0.97218 0,1.36445 1.38151,2.35368 3.30881,2.35368 2.81419,0 4.99732,-2.13196 4.99732,-4.84382 0,-2.23429 -1.51796,-3.93986 -3.53053,-3.93986 -0.66518,0 -1.39857,0.18761 -1.73968,0.44345 l -0.0341,-0.0512 z"
       id="text6"
       aria-label="Compendium de rgles pour la version 3.5" />
  </g>
</svg>
